<svg width="75" height="75" viewBox="0 0 75 75" fill="none" xmlns="http://www.w3.org/2000/svg">
<path fill-rule="evenodd" clip-rule="evenodd" d="M37.936 57.5581C49.2546 57.5581 58.4302 48.3826 58.4302 37.064C58.4302 25.7453 49.2546 16.5698 37.936 16.5698C26.6174 16.5698 17.4419 25.7453 17.4419 37.064C17.4419 48.3826 26.6174 57.5581 37.936 57.5581ZM37.936 50.7267C45.4817 50.7267 51.5988 44.6096 51.5988 37.064C51.5988 29.5182 45.4817 23.4012 37.936 23.4012C30.3903 23.4012 24.2733 29.5182 24.2733 37.064C24.2733 44.6096 30.3903 50.7267 37.936 50.7267Z" fill="#371903"/>
<path d="M57.9942 13.9535C56.3084 13.9535 54.9419 15.3201 54.9419 17.0058C54.9419 18.6916 56.3084 20.0581 57.9942 20.0581C59.68 20.0581 61.0465 18.6916 61.0465 17.0058C61.0465 15.3201 59.68 13.9535 57.9942 13.9535Z" fill="#371903"/>
<path fill-rule="evenodd" clip-rule="evenodd" d="M2.22941 11.1684C0 15.5439 0 21.2717 0 32.7273V42.2727C0 53.7283 0 59.4563 2.22941 63.8315C4.19045 67.6803 7.31959 70.8095 11.1684 72.7705C15.5439 75 21.2717 75 32.7273 75H42.2727C53.7283 75 59.4563 75 63.8315 72.7705C67.6803 70.8095 70.8095 67.6803 72.7705 63.8315C75 59.4563 75 53.7283 75 42.2727V32.7273C75 21.2717 75 15.5439 72.7705 11.1684C70.8095 7.31959 67.6803 4.19045 63.8315 2.22941C59.4563 0 53.7283 0 42.2727 0H32.7273C21.2717 0 15.5439 0 11.1684 2.22941C7.31959 4.19045 4.19045 7.31959 2.22941 11.1684ZM42.2727 6.81818H32.7273C26.887 6.81818 22.9168 6.8235 19.848 7.0742C16.8588 7.31843 15.3301 7.7611 14.2638 8.30444C11.6979 9.61183 9.61183 11.6979 8.30444 14.2638C7.7611 15.3301 7.31843 16.8588 7.0742 19.848C6.8235 22.9168 6.81818 26.887 6.81818 32.7273V42.2727C6.81818 48.1132 6.8235 52.0831 7.0742 55.1519C7.31843 58.1414 7.7611 59.67 8.30444 60.7364C9.61183 63.302 11.6979 65.3881 14.2638 66.6955C15.3301 67.2389 16.8588 67.6817 19.848 67.9258C22.9168 68.1764 26.887 68.1818 32.7273 68.1818H42.2727C48.1132 68.1818 52.0831 68.1764 55.1519 67.9258C58.1414 67.6817 59.67 67.2389 60.7364 66.6955C63.302 65.3881 65.3881 63.302 66.6955 60.7364C67.2389 59.67 67.6817 58.1414 67.9258 55.1519C68.1764 52.0831 68.1818 48.1132 68.1818 42.2727V32.7273C68.1818 26.887 68.1764 22.9168 67.9258 19.848C67.6817 16.8588 67.2389 15.3301 66.6955 14.2638C65.3881 11.6979 63.302 9.61183 60.7364 8.30444C59.67 7.7611 58.1414 7.31843 55.1519 7.0742C52.0831 6.8235 48.1132 6.81818 42.2727 6.81818Z" fill="#371903"/>
</svg>
