<svg width="83" height="75" viewBox="0 0 83 75" fill="none" xmlns="http://www.w3.org/2000/svg">
<path d="M10.8191 0.476811C7.1989 2.63418 0.0700181 10.8572 0 13.0146V16.5972C0 21.1178 4.21405 25.1094 8.03652 25.1094C12.6292 25.1094 16.4672 21.2819 16.4672 16.7379C16.4672 21.2819 20.1523 25.1094 24.7579 25.1094C29.3506 25.1094 32.9293 21.2819 32.9293 16.7379C32.9293 21.2819 36.8606 25.1094 41.4533 25.1094H41.5363C46.1419 25.1094 50.0707 21.2819 50.0707 16.7379C50.0707 21.2819 53.652 25.1094 58.2447 25.1094C62.8374 25.1094 66.5354 21.2819 66.5354 16.7379C66.5354 21.2819 70.3604 25.1094 74.9505 25.1094C78.7859 25.1094 83 21.1178 83 16.5972V13.0146C82.917 10.8572 75.8011 2.63418 72.1679 0.476811C60.9158 0.0703491 53.123 0 41.5078 0C29.8796 0.0130276 14.0373 0.190203 10.8347 0.476811H10.8191ZM32.8748 22.9729C32.4002 23.7754 31.8764 24.4528 31.254 25.0495V25.0625C29.5113 26.7587 27.1359 27.8166 24.5141 27.8166C21.8794 27.8166 19.5039 26.7561 17.7742 25.0469C17.1389 24.4346 16.6643 23.7728 16.2183 22.9964C15.7852 23.7702 15.181 24.4346 14.5456 25.0469C12.8029 26.7561 10.4275 27.8166 7.80572 27.8166C7.80572 27.8166 7.80572 27.8166 7.79276 27.8166C7.48157 27.8166 7.15741 27.7228 6.88771 27.6264C6.52465 31.4956 6.36128 35.185 6.30682 37.8843V37.8973C6.29385 39.2705 6.29385 40.3804 6.27829 41.9411C6.36128 50.0573 5.48216 68.2282 9.84662 72.6941C16.5995 74.2679 29.0264 74.987 41.4767 75H41.4896C53.9554 74.987 66.3668 74.2679 73.1197 72.6941C77.4841 68.2309 76.605 50.0573 76.688 41.9411C76.675 40.3804 76.675 39.2705 76.6595 37.8973V37.8843C76.605 35.185 76.4546 31.4956 76.0786 27.6264C75.8218 27.7228 75.4847 27.8166 75.1735 27.8166H75.1606C72.5388 27.8166 70.1633 26.7561 68.4207 25.0469H68.4336C67.7983 24.4346 67.1915 23.7728 66.761 22.9964H66.748C66.3149 23.7702 65.8274 24.4346 65.205 25.0469C63.4753 26.7561 61.0999 27.8166 58.4651 27.8166C55.8433 27.8166 53.4679 26.7561 51.7252 25.0469C51.1029 24.4502 50.5764 23.7572 50.1304 22.9964L50.1019 22.9547C49.6558 23.7572 49.1164 24.4476 48.507 25.0469C46.7643 26.7561 44.3889 27.8166 41.7671 27.8166H41.7541C41.6737 27.8166 41.5778 27.8166 41.4844 27.8035C41.3911 27.8166 41.2951 27.8166 41.2018 27.8166C41.2018 27.8166 41.2018 27.8166 41.1888 27.8166C38.567 27.8166 36.1916 26.7561 34.4645 25.0469C33.8421 24.4502 33.3157 23.7572 32.8852 22.9964L32.8567 22.9547L32.8748 22.9729ZM25.9456 31.9724C28.6867 31.9854 31.1192 31.9724 34.1429 35.284C36.5183 35.0417 39.0053 34.9192 41.4896 34.9192C43.974 34.9192 46.4609 35.0417 48.8363 35.284C51.8627 31.9724 54.2926 31.9724 57.0336 31.9724H57.0466C58.3432 31.9724 63.5298 31.9724 67.137 42.1652L71.0139 56.1542C73.8899 66.5633 70.0933 66.8239 65.3684 66.8239C58.3458 66.5633 54.4559 61.4356 54.4559 56.3054C50.566 56.9594 46.0252 57.272 41.4896 57.272C36.954 57.272 32.4132 56.9594 28.5363 56.3054C28.5363 61.4356 24.6464 66.5633 17.6238 66.8239C12.8833 66.8108 9.0868 66.5633 11.9627 56.1542L15.8397 42.1652C19.4598 31.9724 24.6464 31.9724 25.943 31.9724H25.9456ZM41.4922 39.9922C41.4793 39.9922 34.104 46.8187 32.7685 49.234L37.6023 49.0438V53.2778C37.6023 53.4836 39.5499 53.4002 41.4922 53.3064C43.4346 53.4002 45.3691 53.4836 45.3691 53.2778V49.0438L50.216 49.234C48.8804 46.8187 41.4922 39.9922 41.4922 39.9922Z" fill="#371903"/>
</svg>
