<svg width="100" height="75" viewBox="0 0 100 75" fill="none" xmlns="http://www.w3.org/2000/svg">
<path fill-rule="evenodd" clip-rule="evenodd" d="M93.75 62.5C93.75 63.1344 93.6281 63.7344 93.4531 64.3063L65.625 34.375L93.75 12.5V62.5ZM11.1125 68.5813L39.3125 38.5312L50 46.6094L60.225 38.4812L88.8875 68.5813C88.4406 68.6844 11.5594 68.6844 11.1125 68.5813ZM6.25 62.5V12.5L34.375 34.375L6.54688 64.3063C6.37188 63.7344 6.25 63.1344 6.25 62.5ZM90.625 6.25L50 37.5L9.375 6.25H90.625ZM87.5 0H12.5C5.59687 0 0 5.59687 0 12.5V62.5C0 69.4031 5.59687 75 12.5 75H87.5C94.4031 75 100 69.4031 100 62.5V12.5C100 5.59687 94.4031 0 87.5 0Z" fill="#371903"/>
</svg>
